<svg width="530" height="530" viewBox="0 0 530 530" fill="none" xmlns="http://www.w3.org/2000/svg">
<rect width="530" height="530" rx="100" fill="black"/>
<path d="M253.307 110.185C250.952 110.811 246.715 112.455 243.89 113.787C239.102 116.057 233.766 121.147 178.596 176.117C114.715 239.622 114.48 239.935 111.105 250.663C107.417 262.644 108.515 273.45 114.872 286.057C119.345 294.905 127.193 303.284 134.335 306.729C138.494 308.687 139.907 309 146.106 309C154.66 309 158.427 307.434 165.49 300.935C171.847 294.983 177.968 287.075 191.231 267.107C210.536 238.213 220.503 225.292 231.882 214.486C241.928 204.933 252.287 200.548 265 200.548C288.622 200.548 302.905 213.468 338.769 267.107C352.032 287.075 358.153 294.983 364.51 300.935C371.573 307.434 375.34 309 383.894 309C390.093 309 391.506 308.687 395.665 306.729C402.807 303.284 410.655 294.905 415.128 286.057C421.485 273.45 422.583 262.644 418.895 250.663C415.52 239.935 415.285 239.622 351.404 176.117C296.391 121.304 290.819 116.057 286.189 113.787C283.364 112.455 278.969 110.811 276.379 110.106C270.572 108.618 258.957 108.618 253.307 110.185Z" fill="white"/>
<path d="M257.087 223.747C253.5 225.086 250.927 227.055 240.167 236.745C218.258 256.596 209.681 268.334 211.162 276.448C213.112 286.689 222.468 292.912 232.292 290.47C235.489 289.603 237.204 288.343 243.676 281.805C253.188 272.273 256.385 270.54 264.494 270.54C272.603 270.54 275.8 272.273 285.312 281.805C291.784 288.343 293.499 289.603 296.696 290.47C306.52 292.912 315.876 286.689 317.826 276.448C319.385 268.255 310.574 256.36 287.729 235.799C281.881 230.521 275.8 225.558 274.084 224.692C270.576 222.959 260.595 222.407 257.087 223.747Z" fill="white"/>
<path d="M246.887 308.723C228.257 310.61 208.374 314.305 196.006 318.158C188.335 320.517 178.08 325.391 174.714 328.222C171.818 330.659 169 335.455 169 337.971C169 343.239 171.818 346.463 205.556 380.351C241.643 416.44 242.269 416.99 253.306 419.821C259.412 421.393 269.588 421.393 275.694 419.821C286.731 416.99 287.357 416.44 323.444 380.351C357.182 346.463 360 343.239 360 337.971C360 335.455 357.182 330.659 354.286 328.222C351.155 325.549 340.9 320.595 334.168 318.472C308.727 310.452 270.997 306.207 246.887 308.723Z" fill="white"/>
</svg>
