<svg width="530" height="530" viewBox="0 0 530 530" fill="none" xmlns="http://www.w3.org/2000/svg">
<g clip-path="url(#clip0_28_5731)">
<path d="M244.8 1.80015C240.8 2.86681 233.6 5.66681 228.8 7.93348C220.667 11.8001 211.6 20.4668 117.867 114.067C9.3332 222.2 8.9332 222.733 3.19987 241C-3.0668 261.4 -1.20013 279.8 9.59987 301.267C17.1999 316.333 30.5332 330.6 42.6665 336.467C49.7332 339.8 52.1332 340.333 62.6665 340.333C77.1999 340.333 83.5999 337.667 95.5999 326.6C106.4 316.467 116.8 303 139.333 269C172.133 219.8 189.067 197.8 208.4 179.4C225.467 163.133 243.067 155.667 264.667 155.667C304.8 155.667 329.067 177.667 390 269C412.533 303 422.933 316.467 433.733 326.6C445.733 337.667 452.133 340.333 466.667 340.333C477.2 340.333 479.6 339.8 486.667 336.467C498.8 330.6 512.133 316.333 519.733 301.267C530.533 279.8 532.4 261.4 526.133 241C520.4 222.733 520 222.2 411.467 114.067C318 20.7335 308.533 11.8001 300.667 7.93348C295.867 5.66681 288.4 2.86681 284 1.66681C274.133 -0.866522 254.4 -0.866522 244.8 1.80015Z" fill="white"/>
<path d="M252 195.933C245.867 198.2 241.467 201.533 223.067 217.933C185.6 251.533 170.933 271.4 173.467 285.133C176.8 302.467 192.8 313 209.6 308.867C215.067 307.4 218 305.267 229.067 294.2C245.333 278.067 250.8 275.133 264.667 275.133C278.533 275.133 284 278.067 300.267 294.2C311.333 305.267 314.267 307.4 319.733 308.867C336.533 313 352.533 302.467 355.867 285.133C358.533 271.267 343.467 251.133 304.4 216.333C294.4 207.4 284 199 281.067 197.533C275.067 194.6 258 193.667 252 195.933Z" fill="white"/>
<path d="M234.667 339.8C202.933 343 169.067 349.267 148 355.8C134.933 359.8 117.467 368.067 111.733 372.867C106.8 377 102 385.134 102 389.4C102 398.334 106.8 403.8 164.267 461.267C225.733 522.467 226.8 523.4 245.6 528.2C256 530.867 273.333 530.867 283.733 528.2C302.533 523.4 303.6 522.467 365.067 461.267C422.533 403.8 427.333 398.334 427.333 389.4C427.333 385.134 422.533 377 417.6 372.867C412.267 368.334 394.8 359.934 383.333 356.334C340 342.734 275.733 335.534 234.667 339.8Z" fill="white"/>
</g>
<defs>
<clipPath id="clip0_28_5731">
<rect width="530" height="530" fill="white"/>
</clipPath>
</defs>
</svg>
